<?xml version="1.0" encoding="utf-8"?>
<!-- Generator: Adobe Illustrator 27.0.0, SVG Export Plug-In . SVG Version: 6.00 Build 0)  -->
<svg version="1.1" id="Layer_1" xmlns="http://www.w3.org/2000/svg" xmlns:xlink="http://www.w3.org/1999/xlink" x="0px" y="0px"
	 viewBox="0 0 577 515.4" style="enable-background:new 0 0 577 515.4;" xml:space="preserve">
<style type="text/css">
	.st0{fill:#FF1717;}
	.st1{fill:#FFFFFF;}
	.st2{fill:#0B0809;}
	.st3{fill:#1C1011;}
	.st4{fill:#AC6C33;}
	.st5{fill:#1B498E;}
	.st6{fill:#D1282B;}
	.st7{fill:#B573C8;}
	.st8{fill:#1D6F41;}
</style>
<g>
	<path class="st0" d="M26.1,277.1c-2.7-1-19.9-10.5-25.3-13.9c-0.6-1.1-0.3-2.3-0.3-3.5c0-11,0-22,0-33c0-11.9,0-23.8,0-35.6
		c0-1.2,0-2.4,0-3.6c4.2-2.7,8.5-4.9,12.7-7.4c4.2-2.4,8.3-4.8,12.7-7.3c0.1,0.8,0.2,1.1,0.2,1.5C26.1,208.5,26.1,242.7,26.1,277.1z
		"/>
	<path d="M175.3,252.8c-6.7,0-13,0-19.4,0c-2.2-4.2-4.4-8.4-6.6-12.6c-2.1-4.1-4.3-8.3-6.4-12.4c-2.2-4.2-4.3-8.4-6.6-12.6
		c-1,0.6-0.7,1.4-0.7,2c-0.1,10.7-0.2,21.4-0.2,32.1c0,1.1-0.1,2.1-0.1,3.2c-2.3,0.5-8.9,0.7-12.4,0.2c-0.1-0.5-0.3-1.1-0.3-1.6
		c-0.1-1.1,0-2.2,0-3.3c0-15.6,0.1-31.1,0.1-46.7c0-1.1,0.1-2.1,0.1-3.4c3.3-0.5,6.4-0.2,9.6-0.3c3.2-0.1,6.3,0,9.5,0
		c0.5,0.8,0.9,1.5,1.3,2.1c5.8,11.1,11.5,22.1,17.3,33.2c0.4,0.9,1,1.7,1.7,2.9c0.2-1,0.4-1.5,0.5-2.1c0.1-2.2,0.1-4.4,0.1-6.5
		c0-8.6,0-17.2,0-25.9c0-1.1,0-2.2,0-3.3c2.1-0.8,4.2-0.3,6.3-0.4c2-0.1,3.9,0,5.9,0c0.7,1.2,0.4,2.3,0.4,3.3
		c0,10.2,0,20.4,0.1,30.6c0,6,0,12.1,0,18.1C175.4,250.6,175.3,251.6,175.3,252.8z"/>
	<path d="M366.8,225c0.1,3.9,0,7.7-1.1,11.5c-2.9,9.9-9.6,15.4-19.7,16.9c-4.5,0.7-9.1,0.6-13.6-0.3c-10.2-2.1-16.3-8.5-18.5-18.5
		c-1.4-6.5-1.4-13.2,0.2-19.7c2.4-9.8,8.7-15.7,18.6-17.7c5.5-1.1,11-0.9,16.5,0.4c7,1.7,12,5.8,15,12.4c1.5,3.4,2.5,6.9,2.5,10.6
		C366.8,222,366.8,223.5,366.8,225z M351.6,225.1c-0.1-1.6-0.1-3.3-0.3-5c-0.2-2.4-0.8-4.7-2-6.8c-1.2-2.2-3-3.7-5.4-4.4
		c-5.1-1.5-11.5-0.3-14,6.6c-0.1,0.4-0.3,0.7-0.4,1.1c-1.3,5.8-1.5,11.6,0.2,17.3c0.2,0.8,0.6,1.7,1,2.5c1.5,2.8,3.9,4.5,7,5
		c1.2,0.2,2.6,0.2,3.8,0.1c3.5-0.3,6.2-2,7.9-5.1c0.6-1,1-2.2,1.3-3.3C351.5,230.6,351.5,227.9,351.6,225.1z"/>
	<path d="M479.4,218c0.3,0.1,0.5,0.2,0.8,0.2c5.2,0,10.3,0,15.5,0c0.4,0,0.8-0.1,1-0.2c0.8-0.9,0.5-1.8,0.5-2.7
		c0-4.9-0.1-9.7-0.1-14.6c0-1,0.1-2,0.1-3.1c1.6-0.6,3.2-0.3,4.7-0.3c1.6-0.1,3.2,0,4.8,0c1.6,0,3.2,0,4.9,0
		c0.1,0.7,0.3,1.2,0.4,1.8c0,2.3,0,4.6,0,6.8c0,14.4,0,28.7,0,43.1c0,1.1,0,2.2,0,3.3c-1.7,0.7-3.3,0.4-4.8,0.4
		c-1.7,0.1-3.4,0.1-5.1,0c-1.6,0-3.1,0.2-4.8-0.2c-0.4-1.9-0.1-3.8-0.2-5.7c0-1.8,0-3.6,0-5.4c0-1.9,0-3.8,0-5.6
		c0-1.8,0-3.5-0.1-5.4c-3-0.5-5.9-0.2-8.7-0.2c-2.8,0-5.7-0.2-8.5,0.2c-0.8,1-0.5,2-0.5,3c-0.1,5.4-0.1,10.7-0.2,16.1
		c0,1-0.1,1.9-0.1,2.9c-2.3,0.5-11,0.6-14.4,0.2c-0.5-1-0.3-2.1-0.3-3.1c0-13,0-26,0-39c0-3.5,0-6.9,0-10.4c0-0.8,0.1-1.6,0.1-2.5
		c1.6-0.6,3.2-0.3,4.7-0.3c1.6,0,3.2,0,4.8,0c1.6,0,3.2-0.2,4.9,0.3c0.1,0.7,0.2,1.5,0.2,2.3c0,5.1,0,10.1,0,15.2
		C479,216.1,478.8,217.1,479.4,218z"/>
	<path d="M42.2,252.9c6-18.9,11.4-37.5,18.1-55.6c2.5-0.4,16.7-0.5,19.6,0c6.2,18.3,12,36.7,18.3,55.1c-2.2,0.8-9.4,0.9-15.3,0.3
		c-1.2-3.1-1.7-6.6-2.9-9.7c-2.6-0.6-12.9-0.6-18.6-0.1c-1.5,3-2,6.5-3.4,9.9c-2.4,0.4-5,0.1-7.5,0.1
		C47.8,252.9,45.2,252.9,42.2,252.9z M70.5,206.5c-0.4,1.2-0.7,1.7-0.9,2.2c-1.8,6.9-3.5,13.8-5.3,20.7c-0.1,0.4,0,0.9,0,1.3
		c3.6,0.4,9.8,0.3,12-0.2C74.5,222.8,73,214.9,70.5,206.5z"/>
	<path d="M435.1,238.9c0,4.2,0.1,8,0,11.9c-6,2.1-12,3.4-18.2,2.9c-1.8-0.1-3.6-0.3-5.3-0.7c-8.1-1.8-13.6-6.8-16.2-14.6
		c-2.7-8-2.9-16.3-0.3-24.3c3.3-10.1,10.5-16,21.3-17.2c5.3-0.6,10.5,0,15.6,1.4c1.7,0.5,3.4,1,5,2.1c0.2,2.1-0.9,3.8-1.5,5.6
		c-0.7,1.8-1.4,3.7-2.1,5.7c-0.9-0.2-1.6-0.4-2.3-0.7c-2-0.6-4-1.3-6-1.7c-1.7-0.4-3.5-0.5-5.3-0.6c-3.2-0.1-5.7,1.4-7.6,3.9
		c-1.6,2.1-2.5,4.5-3,7c-0.7,4-0.6,8.1,0.1,12.1c0.3,1.9,1,3.6,2.1,5.2c1.8,2.7,4.3,4.3,7.5,4.7c2.8,0.4,5.5,0.2,8.2-0.5
		c1.9-0.5,3.8-1.1,5.7-1.7C433.3,239.3,433.9,239.2,435.1,238.9z"/>
	<path d="M229.9,252.7c-3.7,0.3-11.7,0.2-14.2-0.2c-0.1-0.9-0.2-1.9-0.2-2.8c-0.1-12.4-0.2-24.7-0.4-37.1c0-1.1-0.1-2.1-0.1-3.3
		c-2.3-0.6-4.5-0.3-6.6-0.3c-2.1-0.1-4.1-0.1-6.1-0.1c-0.6-2.2-0.7-8.1-0.1-11.1c3.4-0.3,6.8-0.1,10.3-0.1c3.5,0,6.9,0,10.4,0
		c3.4,0,6.7,0,10.1,0c3.4,0,6.9-0.1,10.3,0.1c0.6,2.3,0.6,7.9,0.2,10.9c-1.4,0.5-2.9,0.2-4.3,0.3c-1.4,0.1-2.8,0-4.2,0
		c-1.5,0-2.9,0-4.3,0c-0.8,1.2-0.5,2.3-0.5,3.3c-0.1,12.4-0.1,24.7-0.1,37.1C230,250.4,230,251.5,229.9,252.7z"/>
	<path class="st0" d="M537.8,185.6c3.3,2.8,37.9,37.6,39.2,39.4c-1.6,2.2-35.3,35.9-39.2,39.2c-1.7-1.1-4.5-3.7-6.8-6.6
		c0.7-0.8,1.4-1.6,2.2-2.3c9.1-9.3,18.1-18.6,27.2-27.9c0.7-0.8,1.5-1.6,2.2-2.4c-0.5-1.2-1.4-1.9-2.2-2.6
		c-9-9.2-18.1-18.3-27.1-27.5c-0.8-0.8-1.5-1.6-2.3-2.5C533.2,190.2,535.5,188,537.8,185.6z"/>
	<path d="M270.6,197.5c4.5-0.1,9.1-0.1,13.9-0.1c0.1,0.7,0.3,1.2,0.4,1.8c0.1,0.7,0,1.4,0,2.1c0,15.9,0,31.9,0,47.8
		c0,1.2,0.1,2.3-0.2,3.4c-2.2,0.4-10.9,0.5-14.3,0.2c-0.7-0.7-0.4-1.7-0.4-2.5c0-8.1,0-16.2,0-24.4c0-8.3,0.1-16.6,0.1-25
		C270.1,199.8,269.9,198.7,270.6,197.5z"/>
	<path d="M235.1,493.3c0.6,2.6,1.2,5.2,1.8,7.8c0.6,2.5,1.1,5,1.8,7.9c0.4-0.7,0.7-1.2,0.9-1.6c1.1-4.1,2.1-8.3,3.1-12.4
		c0.1-0.6,0.4-1.1,0.6-1.7c1.4-0.4,2.7-0.4,4.2,0c1.6,5.2,2.9,10.5,4.3,16.2c1.2-3,1.4-5.8,2.1-8.4c0.7-2.6,1.2-5.2,1.8-7.8
		c1.6-0.4,3.1-0.4,4.7,0c-1.7,7.3-3.5,14.4-5.4,21.7c-0.9,0.1-1.5,0.1-2.2,0.1c-1,0-2,0-3,0c-0.3-0.7-0.5-1.2-0.7-1.8
		c-1-3.7-1.9-7.5-2.9-11.2c-0.2-0.6-0.4-1.3-0.8-2.5c-1.5,5.5-2.5,10.5-4.1,15.4c-1.7,0-3.4,0-5,0c-1-1.9-5.2-18.8-5.5-21.7
		C232.1,492.9,233.5,493,235.1,493.3z"/>
	<path d="M293.5,515c-1.7,0-3.1,0-4.7,0c-0.8-1.2-1.6-2.4-2.4-3.7c-0.8-1.2-1.6-2.5-2.4-3.8c-0.7-1.2-1.5-2.3-2.2-3.5
		c-0.8-1.2-1.4-2.5-2.8-4c0.1,3,0.2,5.3,0.2,7.7c0,2.4,0.1,4.7-0.1,7.1c-1.5,0.4-2.7,0.3-4.1,0.2c-0.1-0.3-0.4-0.7-0.4-1
		c0-6.6,0-13.3,0-19.9c0-0.2,0.1-0.4,0.2-0.8c1.4-0.6,3-0.1,4.7-0.3c1,1.6,2.1,3.2,3.1,4.7c1.1,1.7,2.1,3.3,3.2,5
		c1,1.6,1.9,3.1,3.2,4.5c0-4.7-0.1-9.3,0.1-14c1.5-0.5,2.8-0.3,4.3-0.2c0.6,2.4,0.2,4.7,0.3,7.1c0.1,2.5,0,5,0,7.4
		C293.6,510.1,293.8,512.4,293.5,515z"/>
	<path d="M87.3,492.7c1.7,0,3,0,4.6,0c0.4,0.6,0.9,1.2,1.3,1.8c2.3,3.6,4.5,7.2,6.8,10.8c0.3,0.5,0.6,1.2,1.5,1.7
		c0.1-4.9-0.2-9.5,0.1-14.2c0.9-0.1,1.5-0.1,2.2-0.1c0.6,0,1.2,0.1,1.9,0.1c0.1,0.6,0.3,1,0.3,1.5c0,6.3,0,12.7,0,19
		c0,0.4-0.1,0.8-0.2,1.3c-1.5,0.4-3,0.2-4.6,0.1c-3.2-4.6-6-9.6-9.5-14.6c-0.4,1.6-0.1,2.7-0.2,3.8c0,1.2,0,2.4,0,3.6
		c0,1.2,0,2.4,0,3.6c0,1.2,0.2,2.4-0.3,3.6c-1.3,0-2.6,0-3.9,0c-0.6-2.4-0.3-4.8-0.3-7.1c-0.1-2.5,0-5,0-7.4
		C87.1,497.7,86.9,495.3,87.3,492.7z"/>
	<path d="M207.2,504.1c0.3-1.5,0.4-3.1,0.9-4.6c1-3.4,3.3-5.5,6.8-6.4c2.2-0.5,4.3-0.6,6.5-0.1c3.6,0.9,5.8,3.2,6.8,6.7
		c0.8,2.9,0.7,5.9-0.1,8.8c-1.2,3.9-3.8,6.2-7.8,6.7c-1.4,0.2-2.8,0.2-4.1,0c-4.1-0.4-7-2.7-8.1-6.7
		C207.6,507.1,207.5,505.6,207.2,504.1z M223.8,504.6c-0.1-1.6-0.2-2.6-0.3-3.5c0-0.4-0.2-0.8-0.3-1.2c-0.8-2.4-2.4-3.7-4.7-3.8
		c-2.4-0.1-4.3,0.9-5.2,3.2c-1.4,3.1-1.3,6.4,0,9.5c0.9,2.2,2.6,3.2,4.9,3.1c2.2-0.1,4.1-1,4.8-3.3
		C223.4,507.2,223.6,505.6,223.8,504.6z"/>
	<path d="M194.8,506.4c-0.8,0-1.5,0-2.2,0c-0.1,0.3-0.4,0.6-0.4,0.8c0,1.8,0,3.6-0.1,5.3c0,0.8-0.1,1.5-0.2,2.4
		c-1.5,0.2-2.8,0.2-4.4,0c-0.1-0.6-0.3-1.1-0.3-1.7c0-6.2,0-12.5,0-18.7c0-0.4,0.1-0.8,0.2-1.3c0.6-0.1,1.2-0.2,1.7-0.2
		c2.4,0,4.7-0.1,7.1,0c1.1,0,2.2,0.2,3.2,0.6c4.7,1.5,4.8,7.6,2.3,10c-0.6,0.6-1.4,1.1-2.2,1.8c0.2,0.5,0.4,1,0.7,1.4
		c1.5,2.1,3,4.2,4.4,6.3c0.3,0.5,0.6,1,1,1.6c-0.9,0.5-1.7,0.3-2.4,0.3c-0.8,0-1.6,0-2.5,0C198.6,512.4,197,509.3,194.8,506.4z
		 M192.2,496.8c-0.1,2-0.3,3.8,0.1,5.7c1.3,0.5,2.6,0.4,3.9,0.1c1.5-0.3,2.3-1.5,2.3-3c0-1.6-0.8-2.6-2.4-2.9
		C194.9,496.4,193.7,496.3,192.2,496.8z"/>
	<path d="M434.7,504c-0.3,1.8-0.5,3.6-1,5.2c-1.2,3.6-3.8,5.7-7.6,6.1c-1.2,0.1-2.4,0.1-3.5,0c-3.7-0.4-6.2-2.4-7.5-5.8
		c-1.2-3.6-1.2-7.2,0.1-10.7c1.1-3,3.2-4.9,6.4-5.6c1.9-0.4,3.7-0.5,5.6-0.1c3.4,0.7,5.6,2.8,6.6,6.1
		C434.3,500.6,434.4,502.3,434.7,504z M430,504.1c-0.3-1.7-0.5-3.4-1-4.9c-0.7-2.1-2.4-3.1-4.6-3c-2.2,0.1-3.8,1.2-4.6,3.2
		c-1.2,3.2-1.2,6.4,0,9.6c0.8,2.1,2.5,3.1,4.6,3c2.2-0.1,3.9-1.1,4.6-3.2C429.6,507.3,429.7,505.7,430,504.1z"/>
	<path d="M546,515c-1.6,0-2.8,0-4.2,0c-0.5-2.4-0.2-4.8-0.3-7.1c-0.1-2.5,0-4.9,0-7.4c0-2.3-0.1-4.7,0.1-7.2
		c0.7-0.1,1.3-0.2,1.9-0.2c1.9,0,3.8,0,5.6,0c0.6,0,1.2,0,1.8,0.1c2.9,0.3,4.9,1.7,5.6,4.1c0.8,2.8,0.3,5.3-2.1,7.2
		c-0.4,0.3-0.8,0.6-1.3,1c0.3,0.5,0.5,1.1,0.8,1.5c1.3,2,2.7,3.9,4,5.9c0.4,0.6,0.7,1.2,1.1,1.7c-1.7,0.6-1.7,0.6-4.8,0.4
		c-1.8-2.8-3.6-5.7-5.4-8.5c-0.9,0-1.5,0-2.3,0C545.9,509.3,546.4,512,546,515z M546.5,496.7c-0.5,2.5-0.5,3.6,0,6
		c1.1,0.3,2.3,0.2,3.5-0.1c1.4-0.4,2.2-1.6,2.2-3.1c-0.1-1.4-0.8-2.4-2.2-2.8C548.8,496.4,547.7,496.4,546.5,496.7z"/>
	<path d="M515.9,515c-1.6,0-2.9,0-4.3,0c-0.6-3,0-6-0.4-9c-1.1-0.7-2.3-0.3-3.5-0.4c-1.2,0-2.4-0.2-3.6,0.2c-0.5,3,0.1,5.9-0.4,8.9
		c-1.4,0.5-2.8,0.3-4.2,0.1c-0.4-1.8-0.2-3.6-0.2-5.4c0-1.9,0-3.8,0-5.6c0-1.8,0-3.6,0-5.3c0-1.8-0.1-3.5,0.2-5.4
		c1.5-0.3,2.8-0.3,4.2,0.1c0.7,2.7-0.2,5.5,0.6,8.3c0.7,0.1,1.4,0.2,2.1,0.2c1.6,0,3.1,0.1,4.7-0.2c0.6-1.4,0.3-2.8,0.3-4.2
		c0.1-1.4,0.1-2.7,0.1-4.2c1.5-0.5,2.9-0.3,4.3-0.2c0.5,2.4,0.2,4.7,0.3,7.1c0.1,2.5,0,4.9,0,7.4C516,510.1,516.1,512.4,515.9,515z"
		/>
	<path d="M316,493.9c0,1.1,0,2.1,0,3c-0.6,0.6-1.2,0.2-1.7,0c-1.9-0.4-3.8-0.9-5.9-0.3c-2.3,0.6-3.8,2-4.6,4.2
		c-0.7,2-0.8,4.1-0.3,6.1c0.9,3.4,3.3,5.1,6.8,4.9c0.7,0,1.3-0.2,2.1-0.4c0.3-1.5,0.3-2.8,0-4.3c-1.2-0.1-2.4-0.2-3.5-0.3
		c-0.5-1.6-0.5-1.6,0-3.3c0.4-0.1,0.9-0.2,1.4-0.2c2.1,0,4.1,0,6.3,0c0.8,1.7,0.4,3.4,0.4,5.1c0.1,1.7,0,3.3,0,5.1
		c-3.9,2-7.9,2.3-11.9,1.3c-3-0.7-4.9-2.9-6-5.7c-1-2.9-1.1-5.8-0.2-8.8c1.2-3.9,3.9-6.3,7.9-7.3C309.9,492.3,312.9,492.7,316,493.9
		z"/>
	<path d="M455.1,497.2c-1.5-0.3-2.6-0.6-3.8-0.8c-4.2-0.7-7.2,1.4-8.1,5.5c-0.4,1.7-0.4,3.3,0.1,5c0.9,3.5,3.1,5.1,6.7,4.9
		c0.5,0,1-0.2,1.5-0.3c0.6-1.4,0.3-2.7,0.2-4.3c-1.2-0.1-2.3-0.3-3.5-0.4c-0.4-1.1-0.4-2.1,0.1-3.3c2.5-0.1,4.9-0.1,7.5,0
		c0.5,3.5,0.1,6.8,0.3,10.1c-3.7,2-7.4,2.3-11.1,1.4c-3.1-0.8-5-3.1-6-6.1c-0.9-2.9-1-5.9,0-8.8c1.2-3.8,3.8-6.2,7.7-7.1
		c2.9-0.7,5.7-0.3,8.4,0.7C455.4,494.9,455.3,495.9,455.1,497.2z"/>
	<path d="M523,514.8c-0.1-0.3-0.2-0.7-0.2-1.1c0-6.5,0-13.1,0-19.6c0-0.3,0.2-0.5,0.3-0.8c2.7-0.4,10.7-0.4,13.1,0.1
		c0,0.9,0,1.9,0,2.9c-2.8,0.8-5.7-0.1-8.7,0.6c-0.3,1.6-0.3,3.1,0,4.8c1.3,0.6,2.6,0.3,3.8,0.3c1.3,0.1,2.6-0.2,3.9,0.3c0,1,0,2,0,3
		c-2.5,0.7-5.1-0.1-7.8,0.6c-0.3,1.8-0.2,3.6,0,5.4c2.8,0.8,5.7,0,8.5,0.5c0.4,1.6,0.4,1.6,0.1,3.1
		C533.5,515.2,525.5,515.2,523,514.8z"/>
	<path d="M475.2,493.3c0.2,1.1,0.4,2.1-0.2,3.2c-2.7,0.4-5.5-0.1-8.2,0.3c-0.7,2-0.7,2.4-0.1,5.1c2.4,0.4,4.8-0.1,7.3,0.3
		c0.6,1,0.3,2,0.3,3.1c-0.7,0.1-1.4,0.3-2,0.3c-1.9,0.1-3.7,0-5.6,0.1c-0.4,2-0.4,3.8,0,5.8c2.8,0.4,5.6-0.1,8.4,0.3
		c0.6,1,0.4,2,0.2,3c-2.3,0.5-9.9,0.5-13.3,0.1c-0.4-1.7-0.2-3.4-0.2-5.2c0-1.9,0-3.8,0-5.6c0-1.8,0-3.6,0-5.3
		c0-1.8,0.1-3.5,0.1-5.2C464.2,493,471.9,492.9,475.2,493.3z"/>
	<path d="M484.1,496.8c-2.2-0.1-3.9-0.2-5.7-0.2c-0.4-1.1-0.3-2.2-0.2-3.1c0.3-0.2,0.5-0.3,0.6-0.3c4.8,0,9.7-0.1,14.5-0.1
		c0.4,0,0.8,0.1,1.2,0.2c0.3,1.1,0.3,2.1,0,3.3c-1.8,0.1-3.6,0.1-5.5,0.2c-0.1,0.7-0.3,1.3-0.3,2c0,4.4,0,8.7,0,13.1
		c0,1-0.1,1.9-0.1,3c-1.5,0.3-2.8,0.3-4.3,0c-0.5-2-0.2-4-0.3-5.9c-0.1-2,0-4,0-5.9C484.1,501.1,484.1,499.1,484.1,496.8z"/>
	<path d="M401.3,496.8c-2.1-0.1-3.9-0.1-5.8-0.2c-0.1-1.1-0.1-2.1-0.2-3.1c0.6-0.1,1-0.4,1.5-0.4c4.6,0,9.3,0,13.9,0
		c0.4,0,0.7,0.1,1.2,0.2c0,1,0,2,0,3c-1.8,0.8-3.7,0-5.7,0.6c-0.1,0.6-0.2,1.3-0.2,1.9c0,4.4,0,8.7,0,13.1c0,1-0.1,1.9-0.1,3
		c-1.5,0-2.7,0-4.2,0c-0.1-0.6-0.3-1.3-0.3-1.9c0-4.4,0-8.7,0-13.1C401.4,499,401.3,498.1,401.3,496.8z"/>
	<path d="M268.1,515c-1.5,0-2.9,0-4.3,0c-0.1-0.6-0.2-1-0.3-1.5c-0.3-5.5-0.1-17.9,0.3-20.2c1.4-0.4,2.8-0.3,4.4-0.1
		c0.1,0.6,0.2,1.2,0.3,1.7C268.7,502.4,268.5,512.4,268.1,515z"/>
	<path d="M76.4,492.7c1.5,0,2.7,0,4.2,0c0.1,0.5,0.3,1,0.3,1.4c0,6.4,0,12.9,0,19.3c0,0.3-0.1,0.6-0.2,1c-1.4,0.4-2.8,0.3-4.3,0.1
		c-0.1-0.4-0.3-0.6-0.3-0.9c0-6.6,0-13.3,0-19.9C76.1,493.5,76.2,493.2,76.4,492.7z"/>
	<path d="M353.7,514.8c-0.8-0.3-1.4-0.3-1.6-0.6c-0.4-0.6-0.7-1.4-1-2.1c-0.5-1.1-0.9-2.2-1.3-3.2c-2-0.6-7-0.7-10.5-0.2
		c-0.6,1.4-1.2,3-1.8,4.5c-0.2,0.4-0.4,0.9-0.7,1.3c-0.2,0.2-0.7,0.1-1,0.2c-0.5-0.7,0-1.3,0.2-1.8c2.3-6.1,4.7-12.2,7-18.2
		c0.2-0.5,0.5-1.1,0.8-1.6c0.3-0.5,1.2-0.4,1.5,0c0.2,0.3,0.4,0.7,0.5,1c2.6,6.5,5.1,13,7.7,19.6
		C353.6,513.9,353.6,514.1,353.7,514.8z M348.8,506.7c-0.2-2.2-1.2-4-2-5.9c-0.8-1.9-1.2-4-2.3-6c-2.1,4.9-3.8,9.9-4.1,11.9
		C343.2,506.7,345.9,506.7,348.8,506.7z"/>
	<path d="M139.3,508.4c-3.5-0.2-6.8-0.2-10.3,0c-0.5,1.3-1,2.5-1.5,3.7c-0.3,0.7-0.6,1.5-1,2.2c-0.3,0.5-0.8,0.5-1.4,0
		c0.1-0.5,0.3-1,0.5-1.6c2.3-6,4.6-12,7-18c0.1-0.3,0.2-0.5,0.3-0.8c0.2-0.5,0.4-1.2,1.1-1.2c0.7,0,1.1,0.5,1.3,1
		c2.6,6.7,5.2,13.5,7.8,20.2c0,0.1,0,0.2,0,0.3c-1.1,0.4-1.4,0.4-1.6-0.3C140.9,512.3,140.2,510.5,139.3,508.4z M134,495
		c-2.3,5.2-3.8,9.7-3.9,11.8c2.7,0.1,5.5,0.2,8.2-0.1C137.9,504.4,135,496.4,134,495z"/>
	<path d="M32,514.3c-0.9,0.5-1.4,0.3-1.7-0.3c-0.4-0.9-0.8-1.8-1.1-2.7c-0.4-0.9-0.8-1.8-1.1-2.6c-2.5-0.5-7.5-0.5-10.4,0
		c-0.3,0.9-0.7,1.9-1.1,2.9c-0.4,0.9-0.7,1.9-1.2,2.7c-0.2,0.3-0.8,0.3-1.1,0.4c-0.6-0.5-0.3-0.9-0.2-1.2c2.4-6.4,4.9-12.7,7.3-19.1
		c0.1-0.4,0.3-0.7,0.5-1.1c0.5-0.8,1.4-0.8,1.9,0c0.2,0.3,0.4,0.7,0.5,1.1c2.5,6.3,5,12.7,7.4,19C31.9,513.7,31.9,514,32,514.3z
		 M26.9,506.7c0-0.3,0.2-0.5,0.1-0.7c-1.3-3.6-2.6-7.2-3.9-10.8c0-0.1-0.1-0.2-0.2-0.2c-0.1,0-0.1,0-0.2,0.1
		c-1.7,3.6-3.8,9.7-4,11.7C21.5,506.7,24.2,506.7,26.9,506.7z"/>
	<path d="M358.1,514.5c-0.4-3.7-0.3-19.4,0.1-21.6c0.7-0.4,1.2-0.1,1.3,0.6c0.1,0.8,0.1,1.6,0.1,2.4c0,4.7,0,9.5,0,14.2
		c0,1,0.1,1.9,0.1,3c1.5,0.4,2.9,0.2,4.3,0.2c1.3,0,2.6,0,3.9,0c0.5,0,1.1,0,1.2,0.6c0.1,0.7-0.6,0.7-1,0.8c-0.2,0-0.4,0-0.6,0
		c-2.7,0-5.3,0-8,0C359,514.7,358.6,514.6,358.1,514.5z"/>
	<path d="M163.7,492.7c0.5,0.2,1.2,0.3,1.2,0.5c0.2,0.8,0.2,1.6,0.2,2.3c0,4.8,0,9.7,0,14.5c0,1,0.1,1.9,0.1,3
		c1.6,0.4,3.1,0.2,4.6,0.2c1.4,0.1,2.8,0,4.1,0.1c0.2,0,0.5,0.3,0.6,0.5c0.1,0.5-0.3,0.7-0.7,0.7c-0.2,0-0.4,0.1-0.6,0.1
		c-2.9,0-5.7,0-8.6,0c-0.3,0-0.6-0.1-1-0.3c-0.5-2.3-0.2-4.7-0.2-7c-0.1-2.5,0-4.9,0-7.4C163.6,497.6,163.3,495.3,163.7,492.7z"/>
	<path d="M147.6,514.7c-0.1-1-0.1-1.5-0.1-2.1c0-5.9,0-11.9,0-17.8c0-0.5,0-1,0.1-1.5c0.2-0.6,0.6-0.6,1.3-0.4
		c0.6,2.1,0.2,4.4,0.2,6.7c0.1,2.2,0,4.4,0,6.5c0,2.3,0,4.5,0.1,6.9c0.7,0.1,1.3,0.3,1.8,0.3c1.8,0,3.6,0,5.3,0c0.6,0,1.2,0,1.8,0.1
		c0.2,0,0.3,0.4,0.4,0.6c0,0.1-0.2,0.3-0.3,0.4c-0.2,0.1-0.4,0.2-0.6,0.2C154.4,514.7,151.2,514.7,147.6,514.7z"/>
	<path d="M374.1,492.9c0.9-0.2,1.3,0.1,1.4,0.6c0.1,0.8,0.1,1.6,0.1,2.4c0,4.7,0,9.5,0,14.2c0,1,0.1,1.9,0.1,3
		c0.9,0.1,1.5,0.2,2.2,0.2c1.8,0,3.6,0,5.3,0c0.5,0,1,0.1,1.5,0.2c0.1,0,0.3,0.3,0.3,0.4c-0.1,0.2-0.2,0.5-0.4,0.7
		c0,0.1-0.2,0.1-0.3,0.1c-3.3,0.2-6.7,0.1-10.2,0.1c-0.4-2.6-0.2-4.9-0.2-7.3c0-2.5,0-4.9,0-7.4
		C373.9,497.6,373.7,495.3,374.1,492.9z"/>
	<path d="M54,513.2c1.1,0.1,1.9,0.2,2.8,0.2c1.8,0,3.6,0,5.3,0c0.4,0,0.7,0.2,1.1,0.3c0.1,0,0.1,0.2,0.1,0.2c0,0.2,0,0.4-0.2,0.5
		c-0.1,0.1-0.3,0.2-0.5,0.2c-3.3,0.2-6.7,0.1-10.1,0.1c-0.6-2.5-0.2-4.9-0.3-7.2c-0.1-2.5,0-4.9,0-7.4c0-2.4-0.1-4.7,0.1-7
		c0.8-0.6,1.3-0.3,1.4,0.4c0.1,0.8,0.1,1.6,0.1,2.4c0,4.7,0,9.5,0,14.2C53.9,511.1,53.9,512,54,513.2z"/>
	<path d="M36.5,492.6c0.4,0.3,1,0.4,1.1,0.7c0.2,0.8,0.2,1.6,0.2,2.4c0,4.7,0,9.5,0,14.2c0,1,0,2,0.1,3c0.7,0.1,1.3,0.3,1.8,0.3
		c1.9,0,3.8,0,5.6,0c0.7,0,1.3,0.2,2.1,0.3c-0.2,0.4-0.3,0.8-0.5,0.9c-0.3,0.2-0.7,0.2-1.1,0.2c-3.1,0-6.1,0-9.2,0
		c-0.2-0.5-0.4-0.8-0.4-1.2C35.9,509.7,36.2,494.7,36.5,492.6z"/>
	<path d="M112.4,514.6c-0.2-0.2-0.5-0.6-0.6-1c-0.1-0.6,0.5-1.1,1.1-1c0.5,0.1,0.9,0.5,0.9,1C113.9,514.2,113.3,514.7,112.4,514.6z"
		/>
	<path d="M324.3,514.3c0,0.5-0.6,1.1-1.2,1c-0.5-0.1-0.9-0.4-0.9-1c0-0.5,0.3-0.9,0.9-1C323.7,513.2,324.3,513.7,324.3,514.3z"/>
	<path d="M564.5,514.4c-0.5,0.4-0.9,0.8-1.3,0.8c-0.6,0.1-1.1-0.5-0.9-1.2c0.1-0.6,0.6-0.9,1.1-0.7
		C563.8,513.5,564,513.9,564.5,514.4z"/>
	<polygon class="st1" points="219.1,28.6 219,28.9 219,28.6 	"/>
	<polygon class="st1" points="218.5,428.2 218.5,428.4 218.4,428.4 	"/>
</g>
<image style="display:none;overflow:visible;" width="4000" height="5657" xlink:href="PNGAllInAllRowingAllTogether.png"  transform="matrix(0.1488 0 0 0.1488 -8.4409 -192.3293)">
</image>
<g>
	<g>
		<rect x="323" y="24.3" transform="matrix(0.794 -0.6079 0.6079 0.794 41.7715 206.6029)" class="st2" width="5.6" height="34.7"/>
		<rect x="400.9" y="151.1" transform="matrix(0.794 -0.6079 0.6079 0.794 -9.3591 281.1517)" width="18.5" height="6.5"/>
		<path class="st3" d="M337.7,52.4c-0.8,0.5-1.6,1-2.4,1.5c-0.8,1-1.5,2-2.3,3c24.6,32.7,49.2,65.3,73.8,98l6.7-5.1
			C388.2,117.4,362.9,84.9,337.7,52.4z"/>
		<path class="st2" d="M333,57c-7.4-3.9-12.5-8.2-16-11.4c-5.9-5.7-11.3-13.3-21.9-28.5c-0.3-0.4-0.5-0.7-0.6-0.9
			c5.3-4.1,10.6-8.3,15.9-12.4c1.5,2,2.9,3.7,4.2,5.4c4.9,6.9,10.1,13.6,14.7,20.7c2.6,4,4.5,8.4,6.3,12.9c1.5,3.7,2.5,7.6,3.8,11.4
			c-6.4-6.9-12.8-13.8-19.2-20.8c-1.5-1.6-2.9-3.3-4.3-4.9c-0.2,0.2-0.3,0.3-0.5,0.5c3.9,2.5,12.1,8.7,15.9,19.6
			C332.3,51.6,332.8,54.4,333,57z"/>
		<path class="st4" d="M414.6,149"/>
	</g>
	<g>
		<path class="st4" d="M391.2,130.1c7,9.2,12.8,16.8,16.7,22c-0.7,0.5-1.4,1-2.1,1.6c-5.1-6.7-9.2-12-11.8-15.5
			c0,0-39.5-50.7-52.2-68.5c-0.5-0.7-3.2-4-6.2-8.8c-0.8-1.3-4.2-6.9-3.8-7.2C332.4,53.2,343,66.6,391.2,130.1z"/>
		<path class="st4" d="M329.1,50.4c-0.4-0.7-1.9-3-3.5-5.7c-1.6-2.7-2.6-4.4-3.4-5.8c-1.4-2.5-3.6-6-6.4-10.5c1.9,2.1,4.7,5.3,8.3,9
			c2.1,2.3,2.3,2.4,4.6,4.8c4.7,5,7.3,7.7,10.1,11.2c2.7,3.3,5.9,7.5,5.7,7.6C344,61.5,329,43.5,328,44.3
			c-1,0.8,12.5,19.3,11.8,19.9c-0.5,0.3-7.1-8-9.7-12.2C330,51.8,329.6,51.2,329.1,50.4z"/>
		
			<rect x="400.9" y="154.4" transform="matrix(0.794 -0.6079 0.6079 0.794 -11.3596 278.5291)" class="st4" width="8.8" height="3.2"/>
		<rect x="411" y="147.7" transform="matrix(0.794 -0.6079 0.6079 0.794 -5.4841 282.4689)" class="st4" width="6.2" height="3.2"/>
	</g>
	<g>
		<polygon class="st2" points="437.4,51.5 433,55 412,26.7 416.4,23.2 		"/>
		<polygon points="518.4,152 503.7,163.6 499.8,158.3 514.5,146.7 		"/>
		<path class="st3" d="M436.6,50.2c-0.8,0.5-1.6,1.1-2.4,1.6c-0.8,1-1.5,2.1-2.3,3.1c24.6,33.6,49.2,67.3,73.8,100.9l6.7-5.2
			C487.2,117,461.9,83.6,436.6,50.2z"/>
		<path class="st2" d="M432,54.8c-7.4-4-12.5-8.4-16-11.8c-5.9-5.9-11.3-13.7-21.9-29.3c-0.3-0.4-0.5-0.7-0.6-1
			C398.8,8.5,404,4.3,409.3,0c1.5,2,2.9,3.8,4.2,5.6c4.9,7.1,10.1,14,14.7,21.4c2.6,4.1,4.5,8.7,6.3,13.2c1.5,3.8,2.5,7.8,3.8,11.7
			c-6.4-7.1-12.8-14.2-19.2-21.4c-1.5-1.7-2.9-3.4-4.3-5.1c-0.2,0.2-0.3,0.3-0.5,0.5c3.9,2.6,12.1,9,15.9,20.2
			C431.2,49.3,431.8,52.3,432,54.8z"/>
		<path class="st4" d="M513.6,149.6"/>
	</g>
	<g>
		<path class="st5" d="M490.1,130.1c7,9.5,12.8,17.3,16.7,22.6c-0.7,0.5-1.4,1.1-2.1,1.6c-5.1-6.9-9.2-12.4-11.8-15.9
			c0,0-39.5-52.2-52.2-70.5c-0.5-0.7-3.2-4.1-6.2-9.1c-0.8-1.3-4.2-7.1-3.8-7.4C431.3,51,441.9,64.7,490.1,130.1z"/>
		<path class="st5" d="M428,48.1c-0.4-0.7-1.9-3.1-3.5-5.9c-1.6-2.8-2.6-4.5-3.4-5.9c-1.4-2.5-3.6-6.2-6.4-10.8
			c1.9,2.2,4.7,5.4,8.3,9.3c2.1,2.3,2.3,2.4,4.6,5c4.7,5.2,7.3,7.9,10.1,11.5c2.7,3.4,5.9,7.7,5.7,7.9C443,59.5,428,41,426.9,41.8
			c-1,0.8,12.5,19.9,11.8,20.4c-0.5,0.3-7.1-8.3-9.7-12.6C428.9,49.6,428.5,48.9,428,48.1z"/>
		<polygon class="st5" points="508.7,155.4 501.7,160.9 499.8,158.3 506.8,152.8 		"/>
		<polygon class="st5" points="516.4,149.3 511.5,153.2 509.6,150.5 514.5,146.7 		"/>
	</g>
	<g>
		<polygon class="st2" points="142.4,53.5 138,56.9 116.9,29.5 121.3,26.1 		"/>
		<polygon points="223.5,150.6 208.8,161.8 204.9,156.7 219.6,145.5 		"/>
		<path class="st3" d="M141.6,52.2c-0.8,0.5-1.6,1-2.4,1.5c-0.8,1-1.5,2-2.3,3c24.6,32.5,49.2,65,73.9,97.5l6.7-5.1
			C192.2,116.9,166.9,84.5,141.6,52.2z"/>
		<path class="st2" d="M137,56.7c-7.4-3.9-12.6-8.1-16-11.4c-5.9-5.7-11.3-13.2-22-28.4c-0.3-0.4-0.5-0.7-0.6-0.9
			c5.3-4.1,10.6-8.2,15.9-12.3c1.5,2,2.9,3.6,4.2,5.4c4.9,6.8,10.1,13.6,14.7,20.6c2.6,4,4.5,8.4,6.3,12.8c1.5,3.7,2.5,7.6,3.8,11.3
			c-6.4-6.9-12.8-13.8-19.2-20.7c-1.5-1.6-2.9-3.3-4.4-4.9c-0.2,0.2-0.3,0.3-0.5,0.5c3.9,2.5,12.1,8.7,15.9,19.5
			C136.2,51.4,136.7,54.2,137,56.7z"/>
		<path class="st4" d="M218.6,148.4"/>
	</g>
	<g>
		<path class="st6" d="M195.2,129.5c7,9.2,12.8,16.7,16.7,21.9c-0.7,0.5-1.4,1-2.1,1.5c-5.1-6.6-9.2-12-11.8-15.4
			c0,0-39.5-50.4-52.3-68.2c-0.5-0.7-3.2-4-6.2-8.8c-0.8-1.3-4.2-6.8-3.8-7.1C136.3,53,146.9,66.3,195.2,129.5z"/>
		<path class="st6" d="M133,50.2c-0.4-0.7-1.9-3-3.5-5.7c-1.6-2.7-2.6-4.3-3.4-5.7c-1.4-2.5-3.6-6-6.4-10.4c1.9,2.1,4.7,5.2,8.3,9
			c2.1,2.3,2.3,2.3,4.6,4.8c4.7,5,7.3,7.7,10.1,11.1c2.7,3.2,5.9,7.4,5.7,7.6c-0.4,0.4-15.5-17.6-16.5-16.8
			c-1,0.8,12.5,19.2,11.8,19.8c-0.5,0.3-7.1-8-9.7-12.1C133.9,51.7,133.5,51,133,50.2z"/>
		<polygon class="st6" points="213.8,153.9 206.8,159.2 204.9,156.7 211.8,151.4 		"/>
		<polygon class="st6" points="221.5,148 216.6,151.8 214.6,149.2 219.5,145.5 		"/>
	</g>
	<g>
		<polygon class="st2" points="241.1,54.7 236.9,58.1 216.4,30.1 220.7,26.7 		"/>
		<polygon points="319.7,153.8 305.5,165.3 301.7,160 315.9,148.6 		"/>
		<path class="st3" d="M240.4,53.3c-0.8,0.5-1.5,1-2.3,1.6c-0.7,1-1.5,2-2.2,3.1c23.9,33.2,47.7,66.4,71.6,99.6l6.5-5.2
			C289.4,119.3,264.9,86.3,240.4,53.3z"/>
		<path class="st2" d="M235.9,58c-7.2-4-12.2-8.3-15.5-11.6c-5.7-5.8-10.9-13.5-21.3-29c-0.3-0.4-0.5-0.7-0.6-0.9
			c5.1-4.2,10.3-8.4,15.4-12.6c1.5,2,2.8,3.7,4.1,5.5c4.8,7,9.8,13.9,14.2,21.1c2.5,4,4.3,8.6,6.1,13.1c1.5,3.7,2.5,7.7,3.7,11.6
			c-6.2-7-12.4-14.1-18.6-21.1c-1.4-1.6-2.8-3.3-4.2-5c-0.2,0.2-0.3,0.3-0.5,0.5c3.8,2.6,11.7,8.9,15.4,19.9
			C235.1,52.5,235.6,55.4,235.9,58z"/>
		<path class="st4" d="M315,151.5"/>
	</g>
	<g>
		<path class="st7" d="M292.3,132.2c6.8,9.4,12.4,17.1,16.2,22.3c-0.7,0.5-1.3,1.1-2,1.6c-4.9-6.8-8.9-12.2-11.5-15.7
			c0,0-38.3-51.5-50.7-69.6c-0.5-0.7-3.1-4.1-6-9c-0.7-1.3-4.1-7-3.7-7.3C235.2,54.1,245.5,67.7,292.3,132.2z"/>
		<path class="st7" d="M232,51.3c-0.4-0.7-1.8-3.1-3.4-5.8c-1.5-2.7-2.5-4.4-3.3-5.9c-1.4-2.5-3.5-6.1-6.2-10.6
			c1.8,2.2,4.6,5.3,8,9.2c2.1,2.3,2.2,2.4,4.5,4.9c4.6,5.1,7,7.8,9.8,11.4c2.6,3.3,5.7,7.6,5.5,7.8c-0.4,0.4-15-17.9-16-17.1
			c-1,0.8,12.1,19.6,11.4,20.2c-0.4,0.3-6.9-8.2-9.4-12.4C232.9,52.8,232.5,52.1,232,51.3z"/>
		<polygon class="st7" points="310.3,157.2 303.5,162.6 301.7,160 308.4,154.6 		"/>
		<polygon class="st7" points="317.8,151.2 313,155 311.1,152.4 315.9,148.6 		"/>
	</g>
	<g>
		<polygon class="st2" points="43.6,54.7 39.3,58.1 18.4,30.1 22.8,26.7 		"/>
		<polygon points="123.9,153.8 109.3,165.3 105.4,160 120,148.6 		"/>
		<path class="st3" d="M42.8,53.3c-0.8,0.5-1.6,1-2.3,1.6c-0.8,1-1.5,2-2.3,3.1c24.4,33.2,48.7,66.4,73.1,99.6l6.6-5.2
			C92.9,119.3,67.9,86.3,42.8,53.3z"/>
		<path class="st2" d="M38.2,58c-7.3-4-12.4-8.3-15.8-11.6c-5.9-5.8-11.2-13.5-21.7-29C0.4,17,0.2,16.6,0,16.4
			C5.3,12.2,10.5,8,15.8,3.8c1.5,2,2.9,3.7,4.2,5.5c4.9,7,10,13.9,14.5,21.1c2.6,4,4.4,8.6,6.3,13.1c1.5,3.7,2.5,7.7,3.7,11.6
			C38.1,48,31.8,41,25.5,34c-1.5-1.6-2.9-3.3-4.3-5c-0.2,0.2-0.3,0.3-0.5,0.5c3.9,2.6,12,8.9,15.7,19.9C37.5,52.5,38,55.4,38.2,58z"
			/>
		<path class="st4" d="M119.1,151.5"/>
	</g>
	<g>
		<path class="st8" d="M95.8,132.2c6.9,9.4,12.6,17.1,16.5,22.3c-0.7,0.5-1.4,1.1-2,1.6c-5-6.8-9.1-12.2-11.7-15.7
			c0,0-39.1-51.5-51.7-69.6c-0.5-0.7-3.2-4.1-6.1-9c-0.8-1.3-4.2-7-3.8-7.3C37.6,54.1,48.1,67.7,95.8,132.2z"/>
		<path class="st8" d="M34.3,51.3c-0.4-0.7-1.8-3.1-3.4-5.8c-1.6-2.7-2.5-4.4-3.4-5.9c-1.4-2.5-3.5-6.1-6.3-10.6
			c1.9,2.2,4.7,5.3,8.2,9.2c2.1,2.3,2.2,2.4,4.6,4.9c4.7,5.1,7.2,7.8,10,11.4c2.7,3.3,5.8,7.6,5.6,7.8c-0.4,0.4-15.3-17.9-16.3-17.1
			c-1,0.8,12.4,19.6,11.7,20.2c-0.5,0.3-7.1-8.2-9.6-12.4C35.2,52.8,34.8,52.1,34.3,51.3z"/>
		<polygon class="st8" points="114.2,157.2 107.3,162.6 105.4,160 112.3,154.6 		"/>
		<polygon class="st8" points="121.9,151.2 117,155 115.1,152.4 120,148.6 		"/>
	</g>
	<g>
		<polygon class="st2" points="341.5,401.6 336.7,398.5 315.4,425.9 320.2,429.1 		"/>
		<polygon points="423.8,304 407.8,293.6 403.8,298.7 419.8,309.1 		"/>
		<path class="st3" d="M340.7,402.9c-0.9-0.5-1.7-0.9-2.6-1.4c-0.8-0.9-1.7-1.9-2.5-2.8c24.9-32.6,49.7-65.2,74.6-97.8l7.3,4.7
			C391.9,338.1,366.3,370.5,340.7,402.9z"/>
		<path class="st2" d="M335.6,398.7c-7.7,4-13,8.4-16.5,11.7c-6.1,5.7-11.4,13.3-22.2,28.4c-0.3,0.4-0.5,0.7-0.7,0.9
			c5.8,3.8,11.5,7.7,17.3,11.5c1.6-2,3-3.7,4.3-5.4c5-6.9,10.2-13.6,14.8-20.7c2.6-4,4.4-8.4,6.2-12.7c1.5-3.6,2.4-7.5,3.6-11.2
			c-6.5,6.9-13,13.9-19.6,20.8c-1.5,1.6-3,3.3-4.4,4.9c-0.2-0.1-0.4-0.3-0.5-0.4c4-2.6,12.5-8.9,16.1-19.6
			C335,403.9,335.5,401.1,335.6,398.7z"/>
		<path class="st4" d="M418.8,306.4"/>
	</g>
	<g>
		<path class="st4" d="M394.6,325.6c7.1-9.2,12.9-16.8,16.9-21.9c-0.7-0.5-1.5-1-2.2-1.4c-5.1,6.7-9.3,12-12,15.4
			c0,0-40,50.6-52.9,68.4c-0.5,0.7-3.3,4-6.3,8.8c-0.8,1.2-4.2,6.8-3.8,7.1C335.1,402.3,345.8,389,394.6,325.6z"/>
		<path class="st4" d="M331.7,405.2c-0.4,0.7-1.9,3-3.5,5.7c-1.6,2.7-2.6,4.3-3.4,5.7c-1.4,2.5-3.6,6-6.4,10.4
			c1.9-2.1,4.8-5.3,8.4-9.1c2.2-2.3,2.3-2.4,4.7-4.9c4.8-5.1,7.4-7.8,10.3-11.2c2.7-3.3,6-7.5,5.7-7.6c-0.5-0.3-15.7,17.7-16.9,16.9
			c-1.1-0.7,12.6-19.2,11.7-19.7c-0.5-0.3-7.3,8.1-9.9,12.2C332.6,403.7,332.2,404.4,331.7,405.2z"/>
		<polygon class="st4" points="413.4,301.1 405.8,296.2 403.8,298.7 411.4,303.7 		"/>
		<polygon class="st4" points="421.8,306.6 416.5,303.1 414.5,305.7 419.8,309.2 		"/>
	</g>
	<g>
		<polygon class="st2" points="440,403 436.2,399.1 415.1,426.6 419,430.5 		"/>
		<polygon points="520.5,306.1 507.7,293.3 503.8,298.4 516.6,311.3 		"/>
		<path class="st3" d="M439.2,404.4c-0.7-0.6-1.4-1.2-2.1-1.8c-0.6-1.1-1.3-2.2-1.9-3.3c24.6-32.6,49.2-65.2,73.9-97.8l5.8,5.8
			C489.7,339.6,464.4,372,439.2,404.4z"/>
		<path class="st2" d="M435.2,399.2c-7,3.6-12,7.7-15.4,10.9c-5.8,5.6-11.2,13.2-21.9,28.4c-0.3,0.4-0.5,0.7-0.7,0.9
			c4.6,4.7,9.2,9.4,13.8,14.2c1.5-2,2.9-3.6,4.2-5.4c5-6.9,10.1-13.6,14.8-20.8c2.6-4,4.6-8.6,6.6-13.1c1.6-3.8,2.8-7.8,4.2-11.7
			c-6.3,6.8-12.6,13.6-18.9,20.5c-1.5,1.6-2.9,3.3-4.3,4.9c-0.1-0.2-0.3-0.4-0.4-0.5c3.7-2.4,11.6-8.3,15.8-19.5
			C434.2,404.8,434.8,401.9,435.2,399.2z"/>
		<path class="st4" d="M515.9,308.2"/>
	</g>
	<g>
		<path class="st5" d="M493.2,326.5c7-9.2,12.8-16.8,16.7-21.9c-0.6-0.6-1.2-1.2-1.8-1.8c-5.1,6.7-9.2,12-11.8,15.4
			c0,0-39.4,50.5-52.2,68.4c-0.5,0.7-3.2,4-6.3,8.8c-0.8,1.3-4.3,6.9-4,7.3C434.4,403.1,444.9,389.8,493.2,326.5z"/>
		<path class="st5" d="M431.2,405.9c-0.4,0.7-1.9,3.1-3.5,5.8c-1.6,2.7-2.6,4.4-3.5,5.8c-1.5,2.5-3.6,6.1-6.5,10.6
			c1.9-2.1,4.7-5.2,8.2-8.9c2.1-2.2,2.2-2.3,4.5-4.8c4.7-5,7.1-7.6,10-11.1c2.7-3.2,5.9-7.4,5.7-7.6c-0.4-0.4-15.3,17.5-16.2,16.5
			c-0.9-0.9,12.7-19.4,12-20c-0.4-0.4-7.1,7.9-9.7,12.1C432.1,404.4,431.7,405,431.2,405.9z"/>
		<polygon class="st5" points="511.8,302 505.7,295.9 503.8,298.4 509.8,304.5 		"/>
		<polygon class="st5" points="518.5,308.7 514.2,304.4 512.3,307 516.5,311.3 		"/>
	</g>
	<g>
		<polygon class="st2" points="143.8,402.3 139.2,398.9 118.2,427.3 122.8,430.6 		"/>
		<polygon points="224.9,301.7 209.7,290.6 205.8,295.9 221,307 		"/>
		<path class="st3" d="M143,403.7c-0.8-0.5-1.6-1-2.4-1.5c-0.8-1-1.6-2-2.4-3c24.6-33.6,49.1-67.2,73.7-100.9l6.9,5.1
			C193.5,336.8,168.3,370.2,143,403.7z"/>
		<path class="st2" d="M138.2,399.1c-7.5,4.1-12.7,8.5-16.1,11.9c-5.9,5.9-11.3,13.7-21.9,29.3c-0.3,0.4-0.5,0.7-0.6,1
			c5.5,4.1,11,8.2,16.4,12.3c1.5-2,2.9-3.8,4.2-5.6c4.9-7.1,10-14,14.6-21.3c2.6-4.1,4.4-8.7,6.2-13.2c1.5-3.8,2.5-7.8,3.6-11.7
			c-6.4,7.1-12.8,14.3-19.2,21.4c-1.5,1.7-2.9,3.4-4.4,5.1c-0.2-0.2-0.3-0.3-0.5-0.5c3.9-2.7,12.2-9.1,15.9-20.2
			C137.5,404.6,138,401.7,138.2,399.1z"/>
		<path class="st4" d="M220,304.1"/>
	</g>
	<g>
		<path class="st6" d="M196.3,323.8c7-9.5,12.7-17.3,16.7-22.6c-0.7-0.5-1.4-1-2.1-1.5c-5.1,6.9-9.2,12.4-11.8,15.9
			c0,0-39.5,52.2-52.2,70.5c-0.5,0.7-3.2,4.1-6.2,9.1c-0.8,1.3-4.2,7.1-3.8,7.3C137.6,403,148.2,389.2,196.3,323.8z"/>
		<path class="st6" d="M134.2,405.9c-0.4,0.7-1.8,3.1-3.4,5.9c-1.6,2.7-2.5,4.5-3.4,5.9c-1.4,2.5-3.5,6.2-6.4,10.8
			c1.9-2.2,4.7-5.4,8.3-9.3c2.1-2.3,2.3-2.4,4.6-5c4.8-5.2,7.3-8,10.1-11.6c2.7-3.4,5.9-7.7,5.7-7.9c-0.4-0.4-15.5,18.2-16.6,17.4
			c-1.1-0.8,12.5-19.8,11.7-20.4c-0.5-0.3-7.2,8.3-9.7,12.6C135.1,404.4,134.7,405,134.2,405.9z"/>
		<polygon class="st6" points="214.9,298.6 207.7,293.3 205.8,295.9 213,301.1 		"/>
		<polygon class="st6" points="222.9,304.4 217.8,300.7 215.9,303.3 221,307 		"/>
	</g>
	<g>
		<polygon class="st2" points="242.4,401.8 237.6,398.7 217,426.2 221.7,429.2 		"/>
		<polygon points="322.4,304.2 306.5,294.1 302.6,299.2 318.5,309.3 		"/>
		<path class="st3" d="M241.7,403.1c-0.8-0.5-1.7-0.9-2.5-1.4c-0.8-0.9-1.7-1.9-2.5-2.8c24.1-32.5,48.3-65.1,72.4-97.6l7.2,4.6
			C291.3,338.3,266.5,370.7,241.7,403.1z"/>
		<path class="st2" d="M236.6,398.9c-7.6,4.1-12.7,8.4-16.1,11.7c-5.9,5.8-11.1,13.3-21.5,28.4c-0.3,0.4-0.5,0.7-0.6,0.9
			c5.8,3.7,11.5,7.5,17.3,11.2c1.5-2,2.9-3.7,4.1-5.4c4.8-6.8,9.9-13.6,14.3-20.6c2.5-3.9,4.3-8.3,6-12.6c1.4-3.6,2.3-7.4,3.4-11.1
			c-6.3,6.9-12.7,13.9-19,20.9c-1.5,1.6-2.9,3.3-4.3,4.9c-0.2-0.1-0.4-0.3-0.5-0.4c4-2.6,12.2-9,15.6-19.6
			C236,404.1,236.4,401.4,236.6,398.9z"/>
		<path class="st4" d="M317.4,306.6"/>
	</g>
	<g>
		<path class="st7" d="M293.8,325.9c6.9-9.2,12.5-16.8,16.4-21.9c-0.7-0.5-1.5-0.9-2.2-1.4c-5,6.6-9,12-11.6,15.4
			c0,0-38.8,50.5-51.3,68.3c-0.5,0.7-3.2,4-6.1,8.8c-0.7,1.2-4.1,6.8-3.7,7.1C236,402.6,246.5,389.2,293.8,325.9z"/>
		<path class="st7" d="M232.7,405.4c-0.4,0.7-1.8,3-3.3,5.6c-1.5,2.6-2.5,4.3-3.3,5.7c-1.4,2.4-3.4,6-6.2,10.4
			c1.9-2.1,4.7-5.3,8.2-9.1c2.1-2.3,2.2-2.4,4.6-4.9c4.7-5.1,7.2-7.8,10-11.2c2.6-3.3,5.8-7.4,5.6-7.6c-0.5-0.3-15.3,17.7-16.4,17
			c-1.1-0.7,12.1-19.1,11.3-19.6c-0.5-0.3-7.1,8.1-9.6,12.2C233.6,404,233.2,404.6,232.7,405.4z"/>
		<polygon class="st7" points="312,301.5 304.5,296.7 302.6,299.2 310.1,304 		"/>
		<polygon class="st7" points="320.4,306.8 315.1,303.4 313.2,306 318.5,309.3 		"/>
	</g>
	<g>
		
			<rect x="28.6" y="400.2" transform="matrix(0.8035 0.5953 -0.5953 0.8035 254.947 63.3724)" class="st2" width="5.7" height="35.4"/>
		<rect x="106.4" y="298.3" transform="matrix(0.8035 0.5953 -0.5953 0.8035 202.3143 -9.6696)" width="18.9" height="6.6"/>
		<path class="st3" d="M43.5,406.8c-0.8-0.5-1.6-1-2.4-1.5c-0.8-1-1.6-2-2.4-3c24.6-33.7,49.1-67.4,73.7-101.1l6.9,5.1
			C94,339.7,68.7,373.3,43.5,406.8z"/>
		<path class="st2" d="M38.7,402.2c-7.5,4.1-12.7,8.5-16.1,11.9c-5.9,5.9-11.3,13.7-21.9,29.4c-0.3,0.4-0.5,0.7-0.6,1
			c5.5,4.1,10.9,8.3,16.4,12.4c1.5-2,2.9-3.8,4.2-5.6c4.9-7.1,10.1-14.1,14.6-21.4c2.6-4.1,4.4-8.7,6.2-13.2
			c1.5-3.8,2.5-7.8,3.7-11.7c-6.4,7.2-12.8,14.3-19.2,21.5c-1.5,1.7-2.9,3.4-4.4,5.1c-0.2-0.2-0.3-0.3-0.5-0.5
			c3.9-2.7,12.2-9.1,15.9-20.3C38,407.7,38.5,404.8,38.7,402.2z"/>
		<path class="st4" d="M120.4,307"/>
	</g>
	<g>
		<path class="st8" d="M96.8,326.7c7-9.5,12.7-17.4,16.7-22.7c-0.7-0.5-1.4-1-2.1-1.6c-5.1,6.9-9.2,12.4-11.8,16
			c0,0-39.5,52.3-52.2,70.7c-0.5,0.7-3.2,4.1-6.2,9.1c-0.8,1.3-4.2,7.1-3.8,7.4C38,406.1,48.7,392.3,96.8,326.7z"/>
		<path class="st8" d="M34.7,409c-0.4,0.7-1.9,3.1-3.4,5.9c-1.6,2.7-2.5,4.5-3.4,5.9c-1.4,2.5-3.5,6.2-6.4,10.8
			c1.9-2.2,4.7-5.4,8.3-9.4c2.1-2.3,2.3-2.4,4.6-5c4.8-5.2,7.3-8,10.1-11.6c2.7-3.4,5.9-7.7,5.7-7.9c-0.4-0.4-15.5,18.2-16.6,17.4
			c-1.1-0.8,12.5-19.9,11.7-20.4c-0.5-0.3-7.2,8.3-9.7,12.6C35.6,407.5,35.2,408.1,34.7,409z"/>
		
			<rect x="106.3" y="298.4" transform="matrix(0.8035 0.5953 -0.5953 0.8035 200.3837 -7.0106)" class="st8" width="8.9" height="3.2"/>
		
			<rect x="116.7" y="305.1" transform="matrix(0.8035 0.5953 -0.5953 0.8035 206.1413 -11.0726)" class="st8" width="6.3" height="3.3"/>
	</g>
</g>
</svg>
